<?xml version="1.0" encoding="UTF-8" standalone="no"?>
<svg
   xmlns:dc="http://purl.org/dc/elements/1.1/"
   xmlns:cc="http://creativecommons.org/ns#"
   xmlns:rdf="http://www.w3.org/1999/02/22-rdf-syntax-ns#"
   xmlns:svg="http://www.w3.org/2000/svg"
   xmlns="http://www.w3.org/2000/svg"
   xmlns:sodipodi="http://sodipodi.sourceforge.net/DTD/sodipodi-0.dtd"
   xmlns:inkscape="http://www.inkscape.org/namespaces/inkscape"
   enable-background="new 0 0 32 32"
   height="32px"
   id="Layer_1"
   version="1.1"
   viewBox="0 0 32 32"
   width="32px"
   xml:space="preserve"
   sodipodi:docname="empty.svg"
   inkscape:version="1.0.1 (3bc2e813f5, 2020-09-07)"
   inkscape:export-filename="C:\Workspace\node\apartment-hunter\backend\client\icons\app-icon-512.png"
   inkscape:export-xdpi="1536"
   inkscape:export-ydpi="1536"><metadata
     id="metadata26"><rdf:RDF><cc:Work
         rdf:about=""><dc:format>image/svg+xml</dc:format><dc:type
           rdf:resource="http://purl.org/dc/dcmitype/StillImage" /><dc:title></dc:title></cc:Work></rdf:RDF></metadata><defs
     id="defs24"><clipPath
       clipPathUnits="userSpaceOnUse"
       id="clipPath869"><rect
         style="fill:#d35f5f;fill-opacity:1;stroke:none;stroke-width:0.399937;stroke-miterlimit:4;stroke-dasharray:none;stroke-opacity:1"
         id="rect871"
         width="32"
         height="32"
         x="0"
         y="0"
         rx="6"
         ry="6" /></clipPath><clipPath
       clipPathUnits="userSpaceOnUse"
       id="clipPath873"><rect
         style="fill:#d35f5f;fill-opacity:1;stroke:none;stroke-width:0.399937;stroke-miterlimit:4;stroke-dasharray:none;stroke-opacity:1"
         id="rect875"
         width="32"
         height="32"
         x="0"
         y="0"
         rx="6"
         ry="6" /></clipPath><clipPath
       clipPathUnits="userSpaceOnUse"
       id="clipPath877"><rect
         style="fill:#d35f5f;fill-opacity:1;stroke:none;stroke-width:0.399937;stroke-miterlimit:4;stroke-dasharray:none;stroke-opacity:1"
         id="rect879"
         width="32"
         height="32"
         x="0"
         y="0"
         rx="6"
         ry="6" /></clipPath><clipPath
       clipPathUnits="userSpaceOnUse"
       id="clipPath881"><rect
         style="fill:#d35f5f;fill-opacity:1;stroke:none;stroke-width:0.399937;stroke-miterlimit:4;stroke-dasharray:none;stroke-opacity:1"
         id="rect883"
         width="32"
         height="32"
         x="0"
         y="0"
         rx="6"
         ry="6" /></clipPath></defs><sodipodi:namedview
     pagecolor="#ffffff"
     bordercolor="#666666"
     borderopacity="1"
     objecttolerance="10"
     gridtolerance="10"
     guidetolerance="10"
     inkscape:pageopacity="0"
     inkscape:pageshadow="2"
     inkscape:window-width="1920"
     inkscape:window-height="986"
     id="namedview22"
     showgrid="false"
     inkscape:zoom="21.114537"
     inkscape:cx="15.869158"
     inkscape:cy="16.385059"
     inkscape:window-x="-11"
     inkscape:window-y="-11"
     inkscape:window-maximized="1"
     inkscape:current-layer="Layer_1"
     inkscape:document-rotation="0" /><path
     d="m 28.658857,12.356195 c 0.05534,-0.444343 -0.110679,-0.860203 -0.166832,-1.054705 -0.05534,-0.194502 -0.360521,-0.416673 -0.305181,-0.804864 0.05534,-0.388193 0,-0.6665175 -0.194502,-0.8398605 -0.194502,-0.173343 -0.638031,0.229496 -0.887872,0.145673 -0.249841,-0.08301 0,0 -0.999365,-0.277511 -0.999365,-0.277511 -0.721854,-0.02767 -1.137713,-0.02767 -0.416674,0 -1.082374,0.05534 -2.054069,-0.110679 -0.971696,-0.166832 -1.914907,0.08301 -2.526082,0.08301 -0.217289,0 -0.434578,-0.01384 -0.812188,-0.05371 -0.01384,0.06104 -0.02767,0.124514 -0.04232,0.190433 -0.0765,0.351568 -0.15137,0.7666155 -0.209151,1.2142165 -0.03825,0.292973 -0.06836,0.600595 -0.08545,0.912286 -0.009,0.165205 -0.01465,0.332037 -0.01628,0.498869 -0.0049,0.48422 0.02523,0.967626 0.09603,1.411969 0.01302,0.0822 0.02686,0.162763 0.04232,0.241703 0.02767,0.137535 0.05859,0.270187 0.09196,0.396328 0.02848,0.104982 0.0586,0.205081 0.09033,0.300298 0.03174,0.09766 0.06266,0.184736 0.09277,0.257979 0.04069,0.09847 0.08057,0.180667 0.117189,0.249027 0.05615,0.10661 0.110679,0.198571 0.161135,0.273442 0.02686,0.04069 0.05208,0.07731 0.07569,0.109865 0.05371,0.07324 0.100913,0.125328 0.130211,0.160322 0.01709,0.02116 0.0293,0.03581 0.03662,0.04557 -0.0098,-0.0098 -0.02604,-0.02604 -0.04964,-0.04964 -0.03906,-0.04232 -0.09928,-0.09847 -0.168459,-0.17497 -0.138349,-0.162763 -0.327968,-0.39877 -0.511076,-0.712902 -0.183108,-0.320644 -0.358892,-0.716158 -0.496427,-1.155618 -0.0651,-0.208336 -0.122886,-0.425625 -0.171715,-0.64861 -0.05615,-0.251469 -0.101727,-0.509449 -0.137535,-0.768242 -0.06917,-0.49073 -0.102541,-0.98553 -0.111493,-1.44859 -0.0073,-0.326342 -0.0033,-0.638035 0.0081,-0.9228715 0.0049,-0.120444 0.01058,-0.236006 0.0179,-0.345871 0.0033,-0.05127 0.0065,-0.100913 0.0098,-0.149742 -0.318201,-0.03744 -0.697439,-0.0822 -1.154803,-0.136721 -0.02848,0.119631 -0.05941,0.255538 -0.09033,0.40528 -0.06429,0.306808 -0.127769,0.6713985 -0.176598,1.0644735 -0.03174,0.257166 -0.05697,0.526539 -0.07162,0.799167 -0.0073,0.144859 -0.01221,0.291346 -0.01302,0.437019 -0.0033,0.427253 0.02279,0.85125 0.08138,1.236999 0.01058,0.07243 0.02279,0.142417 0.03581,0.211592 0.0236,0.122072 0.04883,0.238447 0.0765,0.347499 0.02441,0.09359 0.05046,0.18148 0.07568,0.263676 0.02848,0.0944 0.05453,0.171715 0.07731,0.227054 0.03092,0.07406 0.05534,0.1237 0.07487,0.154625 0.03744,0.06836 0.07243,0.1237 0.104168,0.165204 -0.0016,-0.0016 -0.0033,-0.0033 -0.0049,-0.0057 -0.110679,-0.144859 -0.259607,-0.348313 -0.402838,-0.610361 -0.145673,-0.27507 -0.285649,-0.608734 -0.3947,-0.977392 -0.05209,-0.175784 -0.09847,-0.358893 -0.138349,-0.54607 -0.04476,-0.211592 -0.08219,-0.428067 -0.111493,-0.645356 -0.05697,-0.413418 -0.08464,-0.828463 -0.09277,-1.21584 -0.0065,-0.274258 -0.0041,-0.5354935 0.0041,-0.7739415 0.0033,-0.100913 0.0081,-0.198571 0.01302,-0.290532 0.0073,-0.128583 0.01546,-0.2474 0.02441,-0.355637 -0.375983,-0.04395 -0.792656,-0.09115 -1.254903,-0.144046 -0.01058,0.03011 -0.02034,0.06917 -0.03092,0.113121 -0.03255,0.129396 -0.07161,0.301111 -0.110679,0.502937 -0.05208,0.262863 -0.104168,0.5761815 -0.144045,0.9139175 -0.02604,0.220544 -0.04639,0.452483 -0.05697,0.686048 -0.0065,0.124513 -0.0098,0.249841 -0.01058,0.375168 -0.0024,0.370286 0.02035,0.734875 0.06755,1.062029 0.009,0.06185 0.01872,0.122886 0.0293,0.181481 0.01953,0.105796 0.03988,0.205895 0.06185,0.29867 0.01953,0.08219 0.04151,0.15788 0.06185,0.227054 0.0081,0.02848 0.01546,0.05534 0.02197,0.07894 -0.06592,-0.105796 -0.139162,-0.230309 -0.210778,-0.374355 -0.108237,-0.229495 -0.211592,-0.502123 -0.292973,-0.798352 -0.03906,-0.143232 -0.07406,-0.291346 -0.104168,-0.442716 -0.03418,-0.171715 -0.06266,-0.346685 -0.08545,-0.522469 -0.04395,-0.335292 -0.06592,-0.670584 -0.07406,-0.983091 -0.0057,-0.222173 -0.0057,-0.4329515 0,-0.6250115 0.0024,-0.0822 0.0049,-0.160322 0.009,-0.235193 0.009,-0.18555 0.02035,-0.346685 0.03174,-0.476082 0.0016,-0.02116 0.0033,-0.04069 0.0057,-0.05941 -0.513517,-0.02848 -0.996109,-0.01872 -1.447777,0.02035 0.01546,0.0098 0.03825,0.02848 0.03174,0.05046 -0.0016,0.0057 -0.0057,0.02116 -0.01139,0.04395 -0.0073,0.0293 -0.01709,0.06836 -0.02848,0.116375 -0.02523,0.105796 -0.05615,0.251469 -0.08789,0.424812 -0.03988,0.218916 -0.08057,0.481778 -0.110679,0.7641735 -0.01953,0.184737 -0.03499,0.378426 -0.04313,0.572929 -0.0049,0.104168 -0.0073,0.20915 -0.0073,0.312505 -8.14e-4,0.312505 0.0179,0.619313 0.0529,0.887058 0.0065,0.05208 0.01465,0.102541 0.02197,0.15137 0.01546,0.08952 0.03092,0.173342 0.04639,0.249841 0.0073,0.03255 0.01465,0.06266 0.02197,0.09196 -0.0041,-0.0065 -0.0073,-0.01221 -0.01139,-0.01872 -0.05534,-0.110678 -0.122886,-0.245772 -0.187178,-0.405279 -0.06999,-0.184736 -0.137534,-0.394701 -0.191246,-0.619314 -0.02604,-0.110679 -0.04964,-0.224613 -0.06999,-0.339361 -0.0236,-0.131838 -0.04313,-0.266117 -0.05941,-0.399583 -0.03093,-0.257166 -0.04802,-0.512706 -0.05534,-0.7503415 -0.0057,-0.169274 -0.0065,-0.330409 -0.0041,-0.476082 8.14e-4,-0.06266 0.0024,-0.122886 0.0041,-0.179853 0.0049,-0.142418 0.01139,-0.266118 0.01872,-0.362962 8.13e-4,-0.01221 0.0016,-0.02279 0.0024,-0.03418 -0.619313,0.09522 -1.169452,0.242517 -1.64472,0.408535 -0.0057,0.03418 -0.01221,0.06999 -0.0179,0.107424 -0.04639,0.288904 -0.09522,0.6795355 -0.10661,1.0734255 -0.01465,0.393887 0.0081,0.789401 0.05046,1.084816 0.01139,0.07406 0.02197,0.141604 0.03092,0.201826 0.01139,0.05941 0.0236,0.110679 0.03255,0.153811 0.01872,0.08545 0.0293,0.13428 0.0293,0.13428 0,0 -0.01872,-0.04639 -0.05127,-0.127769 -0.01628,-0.04069 -0.03744,-0.09033 -0.05859,-0.147301 -0.01953,-0.05859 -0.0415,-0.123699 -0.06511,-0.196129 -0.09278,-0.28809 -0.184736,-0.685232 -0.238447,-1.089699 -0.05046,-0.358896 -0.0708,-0.7210435 -0.07731,-1.0132035 -0.5599046,0.233565 -0.9879713,0.4809655 -1.2728066,0.6673295 -0.1814807,0.09115 -0.3865621,0.231125 -0.5997817,0.444345 -0.00407,0.05127 -0.00651,0.109053 -0.00814,0.174158 -0.00651,0.250655 0.012207,0.592457 0.092775,0.926121 0.039063,0.166832 0.092775,0.331223 0.1570663,0.480965 0.064291,0.149742 0.1399762,0.284021 0.2140334,0.3947 0.035808,0.05697 0.074057,0.103355 0.1066097,0.148115 0.034994,0.0415 0.065105,0.07894 0.091147,0.108237 0.054526,0.05778 0.085451,0.09115 0.085451,0.09115 0,0 -0.039063,-0.0236 -0.1082374,-0.06429 -0.03418,-0.02116 -0.074057,-0.04964 -0.1204446,-0.08057 -0.043946,-0.03418 -0.096844,-0.0708 -0.1489282,-0.117189 C 8.524259,12.607663 8.4062559,12.492102 8.2931356,12.353753 8.1800153,12.216218 8.0717779,12.056711 7.9773753,11.889065 7.8764623,11.710839 7.7926393,11.524476 7.7242789,11.344622 7.4223535,11.837794 7.1285663,12.513261 6.8844218,13.440196 5.9265615,17.076322 5.8435523,16.631979 4.982536,16.937973 c 0,0 -1.4713775,0.222172 -0.9440254,-0.389003 0.5273521,-0.610362 -0.5273521,-1.082374 -0.9716951,-0.02767 -0.444343,1.054704 0.901707,1.516951 1.97106,1.387554 0.5647876,-0.06836 0.9668122,-0.218916 1.3672092,-0.530607 -0.1863636,0.244145 -0.3507543,0.455736 -0.4239976,0.613617 -0.1668321,0.36052 -0.2775109,0.610361 -0.3890036,1.304545 -0.1106789,0.694184 -0.1106789,0.499682 -0.1391624,0.777193 -0.02767,0.277511 0.444343,0.691743 0.444343,0.691743 0,0 0.5273522,-0.02523 0.6941842,0 0.1668321,0.02523 0.638031,0.11312 0.5550219,-0.469571 -0.083009,-0.582692 -0.444343,-0.36052 -0.444343,-0.36052 0,0 0.1945018,-0.416673 0.3890036,-0.887872 0.1945018,-0.472013 0.5826915,-0.694185 0.8878722,-1.082374 0.3051806,-0.389004 0.9993648,-0.944026 1.2768757,-1.304546 0.277511,-0.36052 0.9163553,-0.694184 1.0270343,-0.610361 0.110679,0.08301 0.05534,0.166832 0.222172,0.610361 0.166832,0.444343 0.222171,0.666515 0.18555,1.193867 -0.03662,0.527352 -0.324713,0.721854 0,1.137713 0.324712,0.416674 1.757026,1.807483 1.757026,1.807483 0,0 1.110044,0.246586 1.332215,0.191247 0.222172,-0.05534 0.749524,-0.05534 0.389004,-0.555022 -0.36052,-0.499682 -0.305181,-0.139162 -0.832533,-0.277511 -0.527352,-0.139162 -0.527352,-0.527352 -0.721854,-0.916356 -0.194501,-0.389003 -0.277511,-0.999364 0.139163,-1.776558 0.416673,-0.777193 0.638031,-1.609726 0.832532,-2.109408 0.194502,-0.499683 2.193232,0.832532 3.164113,0.832532 0.971695,0 0.971695,-0.08301 1.831898,-0.05534 0.860202,0.02767 0.389004,0.444343 0.389004,0.860203 0,0.416673 0.110678,0.916355 0.194501,1.554386 0.08301,0.638031 -0.02767,0.916356 0.02767,1.443708 0.05534,0.527352 0.166832,0.944026 0.166832,0.944026 0,0 2.137078,0.194501 2.137078,0 0,-0.194502 -0.277511,-0.416674 -0.416673,-0.610362 -0.139162,-0.194502 -0.610361,-0.08301 -0.610361,-0.08301 0,0 -0.332851,-0.416673 -0.08301,-1.027034 0.249841,-0.610362 0.638031,-1.332216 0.721854,-1.721219 0.08301,-0.389004 0.249841,-0.110679 0.721854,0.139162 0.472012,0.249841 0.610361,0.277511 1.333842,0.916356 0.723482,0.638031 0.664073,0.305181 0.886245,0.666514 0.222171,0.36052 0.222171,0.666515 0.444343,1.416039 0.222171,0.749523 0.389003,0.63803 0.610361,0.666514 0.222172,0.02767 0.749524,0.02767 0.887872,-0.139162 0.138349,-0.166832 0.05534,-0.472013 0,-1.027035 -0.05534,-0.555022 -0.110678,-0.638031 -0.416673,-1.499047 -0.305181,-0.860203 -1.054704,-1.359885 -1.359885,-1.99873 -0.30518,-0.638031 -0.166832,-0.666514 -0.139162,-1.110044 0.01546,-0.244144 0.10661,-0.371099 0.244958,-0.56967 -0.08464,-0.104982 -0.189619,-0.244145 -0.297856,-0.410977 -0.13428,-0.205081 -0.27507,-0.453295 -0.401211,-0.729992 -0.126141,-0.275883 -0.236006,-0.581064 -0.31576,-0.892755 -0.08057,-0.310877 -0.130211,-0.628265 -0.150556,-0.926121 -0.02116,-0.297857 -0.01384,-0.575368 0.0073,-0.811374 0.02035,-0.236006 0.0529,-0.429694 0.07894,-0.564789 0.02604,-0.135093 0.04476,-0.210779 0.04476,-0.210779 0,0 -0.01058,0.07731 -0.02197,0.214035 -0.01139,0.135908 -0.02279,0.331223 -0.01709,0.563975 0.0049,0.232751 0.02767,0.503751 0.07894,0.787772 0.05127,0.284022 0.131024,0.581064 0.239262,0.8659 0.107423,0.285649 0.240889,0.559091 0.385748,0.802421 0.144859,0.243331 0.299484,0.457364 0.441902,0.630707 0.07406,0.08952 0.143231,0.16846 0.206709,0.236006 0.04557,-0.08464 0.09359,-0.179853 0.142417,-0.289718 0.36052,-0.804863 0.323899,-0.622568 0.389004,-0.305181 0.09522,0.468758 0.305181,0.694185 0.305181,0.694185 0,0 0.194501,-0.222172 0.610361,-0.527352 0.416673,-0.305181 0.582691,-0.05534 0.638031,0.02767 0.05534,0.08301 0.33285,0.582692 0.694184,0.721854 0.36052,0.139163 0.389004,0 0.499682,-0.33285 0.110679,-0.33285 0.222172,0.02767 0.499683,-0.222172 0.277511,-0.249841 0.610361,-0.499682 0.638031,-0.694184 0.0293,-0.197757 -0.415046,-0.780448 -0.359706,-1.224791 z"
     fill="#404041"
     id="path19"
     style="fill:#d35f5f;fill-opacity:1;stroke-width:0.813815" /></svg>
